<?xml version="1.0" encoding="UTF-8" standalone="no"?>
<!-- Created with Inkscape (http://www.inkscape.org/) -->

<svg
   width="64"
   height="64"
   viewBox="0 0 16.933333 16.933333"
   version="1.1"
   id="svg5"
   xml:space="preserve"
   sodipodi:docname="iconAbout.svg"
   inkscape:version="1.2.2 (732a01da63, 2022-12-09)"
   xmlns:inkscape="http://www.inkscape.org/namespaces/inkscape"
   xmlns:sodipodi="http://sodipodi.sourceforge.net/DTD/sodipodi-0.dtd"
   xmlns="http://www.w3.org/2000/svg"
   xmlns:svg="http://www.w3.org/2000/svg"><sodipodi:namedview
     id="namedview7"
     pagecolor="#ffffff"
     bordercolor="#000000"
     borderopacity="0.25"
     inkscape:showpageshadow="2"
     inkscape:pageopacity="0.0"
     inkscape:pagecheckerboard="0"
     inkscape:deskcolor="#d1d1d1"
     inkscape:document-units="mm"
     showgrid="false"
     inkscape:zoom="7.5175239"
     inkscape:cx="28.599842"
     inkscape:cy="25.806369"
     inkscape:window-width="1920"
     inkscape:window-height="1009"
     inkscape:window-x="-8"
     inkscape:window-y="-8"
     inkscape:window-maximized="1"
     inkscape:current-layer="layer1-8" /><defs
     id="defs2"><linearGradient
       id="linearGradient20160"
       inkscape:swatch="gradient"><stop
         style="stop-color:#3f3f7b;stop-opacity:1;"
         offset="0"
         id="stop20156" /><stop
         style="stop-color:#3f3f7b;stop-opacity:0;"
         offset="1"
         id="stop20158" /></linearGradient><rect
       x="170.61217"
       y="47.392265"
       width="757.43652"
       height="349.71249"
       id="rect11239" /><rect
       x="170.61217"
       y="47.392265"
       width="757.43652"
       height="349.71249"
       id="rect22243" /></defs><g
     inkscape:label="Layer 1"
     inkscape:groupmode="layer"
     id="layer1"><g
       inkscape:label="Layer 1"
       id="layer1-8"
       transform="matrix(0.06233587,0,0,0.06233587,1.5607584,1.7958217)"><text
         xml:space="preserve"
         transform="matrix(0.19468645,0,0,0.20565287,7.2813233,127.83978)"
         id="text11237"
         style="font-style:italic;font-variant:normal;font-weight:normal;font-stretch:normal;font-size:266.667px;font-family:'Century Gothic';-inkscape-font-specification:'Century Gothic, Italic';font-variant-ligatures:normal;font-variant-caps:normal;font-variant-numeric:normal;font-variant-east-asian:normal;white-space:pre;shape-inside:url(#rect11239);display:inline;opacity:1;fill:#727272;fill-opacity:0.3;stroke:#ffffff;stroke-width:0;stroke-linecap:round;stroke-linejoin:round;stroke-dasharray:none;stroke-opacity:0.3"
         inkscape:label="&lt;mk&gt;"><tspan
           x="170.61133"
           y="289.49277"
           id="tspan1171">&lt;MK&gt;</tspan></text><text
         xml:space="preserve"
         transform="matrix(0.19468645,0,0,0.20565287,9.1140437,129.30597)"
         id="text22241"
         style="font-style:italic;font-variant:normal;font-weight:normal;font-stretch:normal;font-size:266.667px;font-family:'Century Gothic';-inkscape-font-specification:'Century Gothic, Italic';font-variant-ligatures:normal;font-variant-caps:normal;font-variant-numeric:normal;font-variant-east-asian:normal;white-space:pre;shape-inside:url(#rect22243);display:inline;opacity:1;fill:#727272;fill-opacity:0.3;stroke:#ffffff;stroke-width:0;stroke-linecap:round;stroke-linejoin:round;stroke-dasharray:none;stroke-opacity:0.3"
         inkscape:label="&lt;mk&gt;"><tspan
           x="170.61133"
           y="289.49277"
           id="tspan1173">&lt;MK&gt;</tspan></text><rect
         style="fill:#e0e0e0;fill-opacity:1;stroke:#000000;stroke-width:3.38401;stroke-linecap:round;stroke-linejoin:round;stroke-dasharray:none;stroke-opacity:0.3"
         id="rect3402"
         width="113.25832"
         height="0.55792272"
         x="54.447609"
         y="68.920547"
         ry="0.27896136"
         inkscape:label="eyeLine" /><rect
         style="fill:#e0e0e0;fill-opacity:1;stroke:#000000;stroke-width:3.77318;stroke-linecap:round;stroke-linejoin:round;stroke-dasharray:none;stroke-opacity:0.3"
         id="rect2358"
         width="34.854019"
         height="19.831789"
         x="120.70901"
         y="60.12051"
         ry="7.1731997"
         inkscape:label="eyeR" /><rect
         style="fill:#e0e0e0;fill-opacity:1;stroke:#000000;stroke-width:3.77318;stroke-linecap:round;stroke-linejoin:round;stroke-dasharray:none;stroke-opacity:0.3"
         id="rect3348"
         width="34.854019"
         height="19.831789"
         x="69.380135"
         y="60.12051"
         ry="7.1731997"
         inkscape:label="eyeL" /><path
         style="opacity:1;fill:#000000;fill-opacity:0;stroke:#000000;stroke-width:3.42606;stroke-linecap:round;stroke-linejoin:round;stroke-dasharray:none;stroke-opacity:0.3"
         d="m 110.79781,56.08833 c 0,0 -3.34754,21.758992 -5.02131,30.685759 -1.67377,8.926752 6.13717,5.579212 10.60054,4.463376 4.46338,-1.115852 5.02131,2.231688 5.02131,2.231688"
         id="path7358"
         sodipodi:nodetypes="cssc"
         inkscape:label="nose" /><path
         id="path19053"
         style="fill:#a4a4a4;fill-opacity:0.3;stroke:#4f4f4f;stroke-width:3.88401;stroke-linecap:round;stroke-linejoin:round;stroke-dasharray:none;stroke-opacity:0.3"
         inkscape:label="laptopfront"
         d="m 4.3769286,125.48079 211.7311214,0.5738 c 4.70302,0.014 10.81497,5.05745 8.48922,9.75433 l -32.95814,66.55904 c -2.32576,4.69688 -3.78618,9.75434 -8.48923,9.75434 H 34.838245 c -4.703026,0 -6.314976,-4.96259 -8.489217,-9.75434 L -4.1122915,135.23512 c -2.1742423,-4.79175 3.78620528,-9.76707 8.4892201,-9.75433 z m -12.289708,-9.26421 236.3053994,0.63739 c 5.24886,0.014 12.0702,5.61794 9.47451,10.83532 l -36.7834,73.93512 c -2.59569,5.21739 -4.22562,10.83534 -9.4745,10.83534 H 26.083986 c -5.248876,0 -7.047915,-5.51256 -9.474507,-10.83534 L -17.387287,127.0519 c -2.426591,-5.32278 4.225645,-10.84948 9.4745076,-10.83532 z M 110.5196,19.825225 c -30.964903,0.0017 26.3872,107.556965 -56.068177,56.068184 0.06541,15.349647 6.420702,30.001361 17.583436,40.537441 l 76.698381,0.20656 c 11.31479,-10.53857 17.77547,-25.281808 17.85455,-40.744001 -0.002,-30.964906 -25.10328,-56.066501 -56.06819,-56.068184 z" /><path
         style="opacity:1;fill:#767676;fill-opacity:0.50519;stroke:#ffffff;stroke-width:0;stroke-linecap:round;stroke-linejoin:round;stroke-dasharray:none;stroke-opacity:1"
         d="m 139.61313,61.979888 -7.74228,16.125634 h 3.94945 l 7.00258,-16.076314 z"
         id="path19197"
         sodipodi:nodetypes="ccccc"
         inkscape:label="flare2" /><path
         style="opacity:1;fill:#767676;fill-opacity:0.50519;stroke:#ffffff;stroke-width:0;stroke-linecap:round;stroke-linejoin:round;stroke-dasharray:none;stroke-opacity:1"
         d="m 144.92871,62.061584 -7.74229,16.125634 h 6.46012 c 0,0 10.18471,-10.475954 7.00258,-15.378909 -1.03812,-1.599533 -5.72041,-0.746725 -5.72041,-0.746725 z"
         id="path19199"
         sodipodi:nodetypes="cccsc"
         inkscape:label="flare1" /><path
         style="fill:#000000;fill-opacity:0.3;stroke:#000000;stroke-width:4.09711;stroke-linecap:round;stroke-linejoin:round;stroke-dasharray:none;stroke-opacity:0.3"
         d="m 105.16302,5.4187938 c -32.082509,-1.599424 4.37489,9.0634082 4.37489,9.0634082 0,0 -48.123774,-8.5302682 -44.478029,-7.4639852 3.645738,1.066284 30.624228,9.0634062 29.165932,13.3285392 C 92.767514,24.61189 75.267951,27.277597 61.414136,21.413041 47.56032,15.548483 46.102023,6.4850778 46.102023,6.4850778 c 0,0 -7.291479,14.3948232 0.729149,18.6599522 8.020631,4.265135 28.436779,7.997127 28.436779,7.997127 0,0 39.374009,2.132562 55.415239,-0.533145 C 165.8804,26.692277 108.24792,5.6361418 105.16302,5.4187938 Z"
         id="path3468"
         sodipodi:nodetypes="ccssscsccc"
         inkscape:label="hair" /></g></g></svg>
