<?xml version="1.0" encoding="UTF-8" standalone="no"?>
<!-- Created with Inkscape (http://www.inkscape.org/) -->

<svg
   width="64"
   height="64"
   viewBox="0 0 16.933333 16.933333"
   version="1.1"
   id="svg5"
   xml:space="preserve"
   xmlns="http://www.w3.org/2000/svg"
   xmlns:svg="http://www.w3.org/2000/svg"><defs
     id="defs2" /><g
     id="layer1"
     transform="translate(0.22046681,0.04190869)"><g
       id="layer1-3"
       transform="translate(93.878371,168.41728)"><g
         id="g6469"
         transform="translate(0.08170486)"><path
           style="fill:none;fill-opacity:0.97619;stroke:#000000;stroke-width:0.139;stroke-linecap:round;stroke-linejoin:round;stroke-dasharray:none;stroke-opacity:0.3"
           d="m -87.509077,-164.50513 1.925663,-3.17958 1.932783,3.34768 4.068122,0.011 v 9.31483 h -10.882238 l 4.695341,2.71086 1.704218,-0.98393 h -1.607792"
           id="path4610" /><path
           style="fill:none;fill-opacity:0.97619;stroke:#000000;stroke-width:0.139;stroke-linecap:round;stroke-linejoin:round;stroke-dasharray:none;stroke-opacity:0.3"
           id="path4612"
           d="m 88.25989,161.31212 a 4.2319813,1.1419632 0 0 1 -1.242142,0.8082 4.2319813,1.1419632 0 0 1 -2.997255,0.33376 l 0.0074,-1.14196 z"
           transform="rotate(178.77737)" /><path
           style="fill:#000000;fill-opacity:0.3;stroke:#000000;stroke-width:0;stroke-linecap:round;stroke-linejoin:round;stroke-dasharray:none;stroke-opacity:0.3"
           id="path4614"
           d="m -79.035063,159.99142 a 4.2319813,1.1419632 0 0 1 -1.242141,0.8082 4.2319813,1.1419632 0 0 1 -2.997255,0.33377 l 0.0074,-1.14197 z"
           transform="matrix(0.99998644,-0.00520839,-0.00520839,-0.99998644,0,0)" /><path
           style="fill:none;fill-opacity:0.97619;stroke:#000000;stroke-width:0.139;stroke-linecap:round;stroke-linejoin:round;stroke-dasharray:none;stroke-opacity:0.3"
           id="path4616"
           d="m -90.170455,-156.19354 a 1.1419632,4.2319813 43.460492 0 0 1.441043,-0.34568 1.1419632,4.2319813 43.460492 0 0 2.303934,-1.94598 l -0.83398,-0.78013 z" /><path
           style="fill:none;fill-opacity:0.97619;stroke:#000000;stroke-width:0.139;stroke-linecap:round;stroke-linejoin:round;stroke-dasharray:none;stroke-opacity:0.3"
           id="path4618"
           d="m -168.8294,48.618687 a 4.2319813,1.1419632 0 0 1 -1.24215,0.808197 4.2319813,1.1419632 0 0 1 -2.99725,0.333764 l 0.007,-1.141961 z"
           transform="matrix(0.69355712,0.72040164,0.72040164,-0.69355712,0,0)" /><path
           style="fill:none;fill-opacity:0.97619;stroke:#000000;stroke-width:0.0904465;stroke-linecap:round;stroke-linejoin:round;stroke-dasharray:none;stroke-opacity:0.3"
           d="m -85.279343,-156.38073 -0.858209,-0.86105 0.947047,0.002 -0.912125,0.90912"
           id="path4620" /><path
           style="fill:none;fill-opacity:0.97619;stroke:#000000;stroke-width:0.139;stroke-linecap:round;stroke-linejoin:round;stroke-dasharray:none;stroke-opacity:0.3"
           id="path4622"
           d="m -90.184362,-164.23075 a 4.2319813,1.1419632 47.11018 0 1 1.437525,0.36002 4.2319813,1.1419632 47.11018 0 1 2.284438,1.96882 l -0.841438,0.77208 z" /><path
           style="fill:#000000;fill-opacity:0.3;stroke:#000000;stroke-width:0;stroke-linecap:round;stroke-linejoin:round;stroke-dasharray:none;stroke-opacity:0.3"
           id="path4624"
           d="m -81.541922,-164.28187 a 1.1419632,4.2319813 52.944325 0 1 -0.504278,1.39349 1.1419632,4.2319813 52.944325 0 1 -2.19084,2.07248 l -0.682229,-0.9158 z" /></g></g></g></svg>
