<?xml version="1.0" encoding="UTF-8" standalone="no"?>
<!-- Created with Inkscape (http://www.inkscape.org/) -->

<svg
   width="64"
   height="64"
   viewBox="0 0 16.933333 16.933333"
   version="1.1"
   id="svg5"
   xml:space="preserve"
   xmlns="http://www.w3.org/2000/svg"
   xmlns:svg="http://www.w3.org/2000/svg"><defs
     id="defs2" /><g
     id="layer1"><g
       id="layer1-3"
       transform="translate(93.878371,168.41728)"><g
         id="g5327"
         transform="translate(-0.45115232,0.01566885)"><path
           style="fill:none;fill-opacity:0.97619;stroke:#000000;stroke-width:0.139;stroke-linecap:round;stroke-linejoin:round;stroke-dasharray:none;stroke-opacity:0.3"
           id="path3815"
           d="m 90.075815,-159.61995 a 4.2319813,1.1419632 0 0 1 -1.242141,0.8082 4.2319813,1.1419632 0 0 1 -2.997255,0.33376 l 0.0074,-1.14196 z"
           transform="scale(-1,1)" /><path
           style="fill:#000000;fill-opacity:0.3;stroke:#000000;stroke-width:0;stroke-linecap:round;stroke-linejoin:round;stroke-dasharray:none;stroke-opacity:0.15"
           id="path3817"
           d="m 90.075815,-161.14256 a 4.2319813,1.1419632 0 0 1 -1.242141,0.80819 4.2319813,1.1419632 0 0 1 -2.997255,0.33377 l 0.0074,-1.14196 z"
           transform="scale(-1,1)" /><path
           style="fill:none;fill-opacity:0.97619;stroke:#000000;stroke-width:0.139;stroke-linecap:round;stroke-linejoin:round;stroke-dasharray:none;stroke-opacity:0.3"
           id="path3819"
           d="m 89.986254,-162.79953 a 4.2319813,1.1419632 0 0 1 -1.242142,0.8082 4.2319813,1.1419632 0 0 1 -2.997255,0.33376 l 0.0074,-1.14196 z"
           transform="scale(-1,1)" /><path
           style="fill:#000000;fill-opacity:0.3;stroke:#000000;stroke-width:0;stroke-linecap:round;stroke-linejoin:round;stroke-dasharray:none;stroke-opacity:0.15"
           id="path3821"
           d="m -80.439619,160.38821 a 4.2319813,1.1419632 0 0 1 -1.242141,0.8082 4.2319813,1.1419632 0 0 1 -2.997256,0.33377 l 0.0074,-1.14197 z"
           transform="matrix(0.99998644,-0.00520839,-0.00520839,-0.99998644,0,0)" /><path
           style="fill:none;fill-opacity:0.97619;stroke:#000000;stroke-width:0.139;stroke-linecap:round;stroke-linejoin:round;stroke-dasharray:none;stroke-opacity:0.3"
           id="path3823"
           d="m -80.439619,158.8656 a 4.2319813,1.1419632 0 0 1 -1.242141,0.8082 4.2319813,1.1419632 0 0 1 -2.997256,0.33376 l 0.0074,-1.14196 z"
           transform="matrix(0.99998644,-0.00520839,-0.00520839,-0.99998644,0,0)" /><path
           style="fill:none;fill-opacity:0.97619;stroke:#000000;stroke-width:0.139;stroke-linecap:round;stroke-linejoin:round;stroke-dasharray:none;stroke-opacity:0.3"
           id="path3825"
           d="m -80.529188,157.20863 a 4.2319813,1.1419632 0 0 1 -1.242142,0.8082 4.2319813,1.1419632 0 0 1 -2.997255,0.33376 l 0.0074,-1.14196 z"
           transform="matrix(0.99998644,-0.00520839,-0.00520839,-0.99998644,0,0)" /><path
           style="fill:none;fill-opacity:0.97619;stroke:#000000;stroke-width:0.139;stroke-linecap:round;stroke-linejoin:round;stroke-dasharray:none;stroke-opacity:0.3"
           d="m -87.446011,-164.47889 1.925664,-3.17958 1.932782,3.34767 4.068122,0.011 v 9.31484 H -90.40168 l 4.69534,2.71086 1.704218,-0.98394 h -1.607791"
           id="path3827" /><path
           style="fill:none;fill-opacity:0.97619;stroke:#000000;stroke-width:0.0904465;stroke-linecap:round;stroke-linejoin:round;stroke-dasharray:none;stroke-opacity:0.3"
           d="m -84.323221,-161.91316 -0.858209,-0.86105 0.947047,0.002 -0.912125,0.90912"
           id="path3853" /></g></g></g></svg>
