<?xml version="1.0" encoding="UTF-8" standalone="no"?>
<!-- Created with Inkscape (http://www.inkscape.org/) -->

<svg
   width="210mm"
   height="297mm"
   viewBox="0 0 210 297"
   version="1.1"
   id="svg5"
   xml:space="preserve"
   inkscape:version="1.2.2 (732a01da63, 2022-12-09)"
   sodipodi:docname="Spotlight_Logo.svg"
   xmlns:inkscape="http://www.inkscape.org/namespaces/inkscape"
   xmlns:sodipodi="http://sodipodi.sourceforge.net/DTD/sodipodi-0.dtd"
   xmlns="http://www.w3.org/2000/svg"
   xmlns:svg="http://www.w3.org/2000/svg"><sodipodi:namedview
     id="namedview7"
     pagecolor="#ffffff"
     bordercolor="#000000"
     borderopacity="0.25"
     inkscape:showpageshadow="2"
     inkscape:pageopacity="0.0"
     inkscape:pagecheckerboard="0"
     inkscape:deskcolor="#d1d1d1"
     inkscape:document-units="mm"
     showgrid="false"
     inkscape:zoom="0.52221046"
     inkscape:cx="413.62634"
     inkscape:cy="584.05571"
     inkscape:window-width="1920"
     inkscape:window-height="1009"
     inkscape:window-x="-8"
     inkscape:window-y="-8"
     inkscape:window-maximized="1"
     inkscape:current-layer="layer1" /><defs
     id="defs2" /><g
     inkscape:label="Layer 1"
     inkscape:groupmode="layer"
     id="layer1"><circle
       style="fill:#ead4b5;fill-opacity:0.179878;stroke:#000000;stroke-width:0;stroke-linecap:round;stroke-linejoin:round;stroke-opacity:0.993902"
       id="circle7198"
       cx="104.11871"
       cy="143.6382"
       r="92.465515" /><circle
       style="fill:#edc191;fill-opacity:0.179878;stroke:#000000;stroke-width:0;stroke-linecap:round;stroke-linejoin:round;stroke-opacity:0.993902"
       id="path7196"
       cx="104.11871"
       cy="143.6382"
       r="86.009064" /><circle
       style="fill:#ffffff;fill-opacity:0.996951;stroke:#000000;stroke-width:0;stroke-linecap:round;stroke-linejoin:round;stroke-opacity:0.993902"
       id="circle8659"
       cx="104.11871"
       cy="143.6382"
       r="79.091446" /><path
       style="fill:#d6bb9f;fill-opacity:1;stroke:#000000;stroke-width:0;stroke-linecap:round;stroke-linejoin:round;stroke-opacity:0.993902"
       d="m 71.375304,178.2263 -30.8987,15.44935 c 0,0 22.083342,49.1443 87.392596,32.05164 59.03034,-15.44935 50.21614,-79.43896 6.68702,-91.77375 C 98.915313,123.85402 81.290558,122.42417 80.137622,110.20304 78.984684,97.981918 91.129017,92.091348 101.35166,91.986649 c 25.62726,-0.262469 30.81835,12.497661 33.96627,18.025361 l 30.36758,-15.027726 c 0,0 -10.8376,-26.517541 -40.81396,-33.435161 C 94.895209,54.631504 74.142351,60.396187 59.154174,75.384362 44.166,90.372538 40.937777,112.04774 46.933048,126.34415 c 5.99527,14.29642 17.755224,28.13166 54.879782,33.20458 37.12455,5.07292 29.51517,17.98581 29.74576,20.98344 0.16015,2.0819 -4.03818,14.9812 -26.74813,15.91053 -15.842443,0.64831 -31.850465,-15.77939 -33.435156,-18.2164 z"
       id="path412"
       sodipodi:nodetypes="ccssssccssssssc" /></g></svg>
